<svg width="42" height="48" viewBox="0 0 42 48" fill="none" xmlns="http://www.w3.org/2000/svg">
<path fill-rule="evenodd" clip-rule="evenodd" d="M19 0H0V35H19V0ZM13 21C14.1046 21 15 20.1046 15 19C15 17.8954 14.1046 17 13 17C11.8954 17 11 17.8954 11 19C11 20.1046 11.8954 21 13 21ZM23 3.45707e-05H42V35H23V3.45707e-05ZM29 21C27.8954 21 27 20.1046 27 19C27 17.8955 27.8954 17 29 17C30.1046 17 31 17.8955 31 19C31 20.1046 30.1046 21 29 21ZM42 38H0V46C0 47.1046 0.895431 48 2 48C3.10457 48 4 47.1046 4 46H38C38 47.1046 38.8954 48 40 48C41.1046 48 42 47.1046 42 46V38Z" fill="black"/>
</svg>
