<svg width="15" height="20" viewBox="0 0 15 20" fill="none" xmlns="http://www.w3.org/2000/svg">
<path d="M3.61506 19.5235C3.11908 19.5206 2.62931 19.413 2.17782 19.2076C1.68952 18.9924 1.27349 18.6412 0.979422 18.1959C0.685355 17.7506 0.525682 17.23 0.51947 16.6964V3.39803C0.525682 2.86443 0.685355 2.34389 0.979422 1.89859C1.27349 1.45329 1.68952 1.10205 2.17782 0.886812C2.73967 0.621425 3.36478 0.519209 3.9819 0.591811C4.59902 0.664413 5.18333 0.908915 5.66825 1.29745L13.7231 7.94665C14.039 8.19811 14.2941 8.51757 14.4694 8.88126C14.6447 9.24494 14.7358 9.64348 14.7358 10.0472C14.7358 10.451 14.6447 10.8495 14.4694 11.2132C14.2941 11.5769 14.039 11.8963 13.7231 12.1478L5.66825 18.797C5.08764 19.2679 4.3626 19.5244 3.61506 19.5235Z" fill="white"/>
</svg>
