<svg width="9" height="17" viewBox="0 0 9 17" fill="none" xmlns="http://www.w3.org/2000/svg">
<path d="M1.52876 16.8723C1.26303 16.8728 1.00551 16.7802 0.800893 16.6107C0.685732 16.5152 0.590539 16.3979 0.520763 16.2656C0.450988 16.1333 0.408002 15.9885 0.394269 15.8396C0.380535 15.6906 0.396323 15.5404 0.440728 15.3975C0.485133 15.2547 0.557282 15.122 0.653044 15.0071L5.74813 8.91119L0.835013 2.80391C0.740542 2.68758 0.669994 2.55373 0.627423 2.41004C0.584852 2.26636 0.571098 2.11567 0.58695 1.96666C0.602803 1.81764 0.64795 1.67322 0.719798 1.54171C0.791645 1.4102 0.888776 1.29418 1.00561 1.20033C1.12328 1.09679 1.26108 1.0187 1.41036 0.970942C1.55965 0.923188 1.71719 0.906807 1.87311 0.922826C2.02902 0.938844 2.17994 0.986917 2.3164 1.06403C2.45285 1.14114 2.5719 1.24562 2.66606 1.37092L8.15919 8.19469C8.32647 8.39819 8.41791 8.65345 8.41791 8.91687C8.41791 9.1803 8.32647 9.43556 8.15919 9.63906L2.47272 16.4628C2.35863 16.6005 2.2137 16.7093 2.04969 16.7804C1.88568 16.8515 1.70721 16.883 1.52876 16.8723Z" fill="#D0CFCF"/>
</svg>
