<svg width="24" height="32" viewBox="0 0 24 32" fill="none" xmlns="http://www.w3.org/2000/svg">
<path d="M5.07514 31.5236C4.26513 31.5188 3.46526 31.343 2.72789 31.0077C1.93041 30.6562 1.25097 30.0825 0.770708 29.3553C0.290449 28.628 0.0296761 27.7779 0.0195312 26.9065V5.18799C0.0296761 4.31654 0.290449 3.46642 0.770708 2.73917C1.25097 2.01192 1.93041 1.43828 2.72789 1.08676C3.64549 0.65334 4.66639 0.486404 5.67425 0.604975C6.68211 0.723547 7.63639 1.12286 8.42835 1.7574L21.5832 12.6166C22.0991 13.0273 22.5157 13.5491 22.8021 14.143C23.0884 14.737 23.2371 15.3879 23.2371 16.0472C23.2371 16.7066 23.0884 17.3575 22.8021 17.9515C22.5157 18.5454 22.0991 19.0671 21.5832 19.4778L8.42835 30.3371C7.48011 31.106 6.29599 31.525 5.07514 31.5236Z" fill="#1EE1B3"/>
</svg>
